<?xml version="1.0" encoding="utf-8"?>
<!-- Generator: Adobe Illustrator 22.1.0, SVG Export Plug-In . SVG Version: 6.00 Build 0)  -->
<svg version="1.1" id="Layer_1" xmlns="http://www.w3.org/2000/svg" xmlns:xlink="http://www.w3.org/1999/xlink" x="0px" y="0px"
	 viewBox="0 0 397.5 187.5" style="enable-background:new 0 0 397.5 187.5;" xml:space="preserve">
<style type="text/css">
	.st0{fill:#F37021;}
	.st1{fill:#3B4559;}
</style>
<g>
	<g>
		<path class="st0" d="M47.6,132.6L47.6,132.6c0-3.2,2.4-5.8,5.8-5.8c2.1,0,3.3,0.7,4.4,1.7l-1.3,1.5c-0.9-0.8-1.9-1.4-3.1-1.4
			c-2.1,0-3.7,1.8-3.7,4v0c0,2.2,1.6,4,3.7,4c1.4,0,2.3-0.6,3.2-1.5l1.3,1.3c-1.2,1.2-2.4,2-4.5,2C50,138.4,47.6,135.8,47.6,132.6z"
			/>
		<path class="st0" d="M66.4,126.9h1.8l4.9,11.3h-2.1l-1.1-2.7h-5.3l-1.2,2.7h-2L66.4,126.9z M69.3,133.7l-1.9-4.5l-1.9,4.5H69.3z"
			/>
		<path class="st0" d="M77.7,127h5c1.3,0,2.3,0.4,2.9,1c0.5,0.5,0.8,1.1,0.8,1.9v0c0,1.3-0.8,2.1-1.6,2.5c1.3,0.4,2.2,1.2,2.2,2.7v0
			c0,2-1.6,3.1-4.1,3.1h-5.2V127z M82.3,131.7c1.3,0,2.1-0.5,2.1-1.5v0c0-0.9-0.7-1.4-2-1.4h-2.8v3H82.3z M82.9,136.4
			c1.3,0,2.2-0.5,2.2-1.5v0c0-0.9-0.8-1.5-2.3-1.5h-3.1v3.1H82.9z"/>
		<path class="st0" d="M91.9,127h2v11.2h-2V127z"/>
		<path class="st0" d="M99.4,127h1.8l6,7.7V127h1.9v11.2h-1.6l-6.2-8v8h-1.9V127z"/>
		<path class="st0" d="M114.6,127h8.3v1.8h-6.3v2.9h5.6v1.8h-5.6v3h6.4v1.8h-8.4V127z"/>
		<path class="st0" d="M130.6,128.8h-3.5V127h9.1v1.8h-3.6v9.4h-2V128.8z"/>
		<path class="st0" d="M140.8,127h5c1.4,0,2.5,0.4,3.2,1.1c0.6,0.6,0.9,1.4,0.9,2.4v0c0,1.8-1.1,2.9-2.7,3.4l3,4.2H148l-2.8-3.9
			h-2.5v3.9h-2V127z M145.6,132.5c1.4,0,2.3-0.7,2.3-1.9v0c0-1.2-0.9-1.9-2.3-1.9h-2.9v3.8H145.6z"/>
		<path class="st0" d="M157.8,133.7l-4.4-6.8h2.3l3.1,5l3.2-5h2.3l-4.4,6.7v4.5h-2V133.7z"/>
		<path class="st0" d="M175.7,133.4V127h2v6.4c0,2.1,1.1,3.2,2.8,3.2c1.7,0,2.8-1.1,2.8-3.1V127h2v6.3c0,3.3-1.9,5-4.8,5
			C177.5,138.3,175.7,136.7,175.7,133.4z"/>
		<path class="st0" d="M190.5,127h1.8l6,7.7V127h1.9v11.2h-1.6l-6.2-8v8h-1.9V127z"/>
		<path class="st0" d="M205.2,132.6L205.2,132.6c0-3.2,2.4-5.8,5.8-5.8c2.1,0,3.3,0.7,4.4,1.7l-1.3,1.5c-0.9-0.8-1.9-1.4-3.1-1.4
			c-2.1,0-3.7,1.8-3.7,4v0c0,2.2,1.6,4,3.7,4c1.4,0,2.3-0.6,3.2-1.5l1.3,1.3c-1.2,1.2-2.4,2-4.5,2
			C207.7,138.4,205.2,135.8,205.2,132.6z"/>
		<path class="st0" d="M219.3,132.6L219.3,132.6c0-3.2,2.4-5.8,5.9-5.8c3.4,0,5.8,2.6,5.8,5.8v0c0,3.2-2.4,5.8-5.9,5.8
			S219.3,135.7,219.3,132.6z M228.9,132.6L228.9,132.6c0-2.2-1.6-4-3.8-4s-3.8,1.8-3.8,4v0c0,2.2,1.6,4,3.8,4
			S228.9,134.8,228.9,132.6z"/>
		<path class="st0" d="M235.9,127h2.1l3.4,5.3l3.4-5.3h2.1v11.2h-2v-8l-3.5,5.3h-0.1l-3.5-5.2v8h-1.9V127z"/>
		<path class="st0" d="M252.4,127h4.4c2.6,0,4.3,1.5,4.3,3.7v0c0,2.5-2,3.8-4.5,3.8h-2.2v3.6h-2V127z M256.6,132.8
			c1.5,0,2.4-0.8,2.4-2v0c0-1.3-0.9-2-2.4-2h-2.3v4H256.6z"/>
		<path class="st0" d="M265.6,127h2v9.4h5.9v1.8h-7.9V127z"/>
		<path class="st0" d="M278.2,127h2v11.2h-2V127z"/>
		<path class="st0" d="M285.2,132.6L285.2,132.6c0-3.2,2.4-5.8,5.8-5.8c2.1,0,3.3,0.7,4.4,1.7l-1.3,1.5c-0.9-0.8-1.9-1.4-3.1-1.4
			c-2.1,0-3.7,1.8-3.7,4v0c0,2.2,1.6,4,3.7,4c1.4,0,2.3-0.6,3.2-1.5l1.3,1.3c-1.2,1.2-2.4,2-4.5,2
			C287.6,138.4,285.2,135.8,285.2,132.6z"/>
		<path class="st0" d="M304,126.9h1.8l4.9,11.3h-2.1l-1.1-2.7h-5.3l-1.2,2.7h-2L304,126.9z M306.8,133.7l-1.9-4.5l-1.9,4.5H306.8z"
			/>
		<path class="st0" d="M316.5,128.8H313V127h9.1v1.8h-3.5v9.4h-2V128.8z"/>
		<path class="st0" d="M326.7,127h8.3v1.8h-6.3v2.9h5.6v1.8h-5.6v3h6.4v1.8h-8.4V127z"/>
		<path class="st0" d="M340,127h4.2c3.5,0,5.9,2.4,5.9,5.6v0c0,3.2-2.4,5.6-5.9,5.6H340V127z M344.2,136.4c2.4,0,3.9-1.6,3.9-3.8v0
			c0-2.2-1.5-3.8-3.9-3.8H342v7.6H344.2z"/>
	</g>
	<g>
		<g>
			<path class="st1" d="M79.9,77.7C79.9,77.7,79.9,77.7,79.9,77.7L79.9,77.7c0-2.6-0.2-3.5-0.2-3.5c0-0.2-0.2-0.4-0.4-0.4H61.9
				c-0.2,0-0.4,0.2-0.4,0.4v3.5v0v3.5c0,0.2,0.2,0.4,0.4,0.4h17.5c0.2,0,0.4-0.2,0.4-0.4C79.7,81.2,79.9,80.2,79.9,77.7L79.9,77.7
				C79.9,77.7,79.9,77.7,79.9,77.7C79.9,77.7,79.9,77.7,79.9,77.7C79.9,77.7,79.9,77.7,79.9,77.7z"/>
			<path class="st1" d="M85.1,97.5H58c-0.3,0-0.6-0.2-0.6-0.5V60.1c0-0.3,0.2-0.6,0.5-0.6h27c0.2,0,0.4-0.2,0.4-0.4v-7.6
				c0-0.2-0.2-0.4-0.4-0.4H48.3c-0.2,0-0.4,0.2-0.4,0.4v7v0.6v38.7v0.4v7.1c0,0.2,0.2,0.4,0.4,0.4h36.7c0.2,0,0.4-0.2,0.4-0.4v-7.6
				C85.4,97.7,85.3,97.5,85.1,97.5z"/>
		</g>
		<g>
			<path class="st1" d="M115.3,51.3c0.2,0,0.4,0.1,0.4,0.3l16.6,42c0.2,0.3,0.3,0.3,0.5,0l16.5-41.9c0.1-0.2,0.3-0.3,0.5-0.3h8.9
				c0.4,0,0.7,0.4,0.5,0.8l-22.8,53.4c-0.1,0.2-0.3,0.3-0.5,0.3h-7.5c-0.2,0-0.4-0.1-0.5-0.3L105.7,52c-0.2-0.4,0.1-0.8,0.5-0.8
				H115.3z"/>
		</g>
		<g>
			<path class="st1" d="M344.4,77.7C344.4,77.7,344.4,77.7,344.4,77.7L344.4,77.7c0-2.6-0.2-3.5-0.2-3.5c0-0.2-0.2-0.4-0.4-0.4
				h-17.5c-0.2,0-0.4,0.2-0.4,0.4v3.5v0v3.5c0,0.2,0.2,0.4,0.4,0.4h17.5c0.2,0,0.4-0.2,0.4-0.4C344.2,81.2,344.4,80.2,344.4,77.7
				L344.4,77.7C344.4,77.7,344.4,77.7,344.4,77.7C344.4,77.7,344.4,77.7,344.4,77.7C344.4,77.7,344.4,77.7,344.4,77.7z"/>
			<path class="st1" d="M349.6,97.5h-27.1c-0.3,0-0.6-0.2-0.6-0.5V60.1c0-0.3,0.2-0.6,0.5-0.6h27c0.2,0,0.4-0.2,0.4-0.4v-7.6
				c0-0.2-0.2-0.4-0.4-0.4h-36.6c-0.2,0-0.4,0.2-0.4,0.4v7v0.6v38.7v0.4v7.1c0,0.2,0.2,0.4,0.4,0.4h36.7c0.2,0,0.4-0.2,0.4-0.4v-7.6
				C349.9,97.7,349.8,97.5,349.6,97.5z"/>
		</g>
		<path class="st1" d="M174.6,78.6c0-2.1,0-4.2,0-6.2c0-4.4,1.1-8.5,3.5-12.2c3-4.8,7.4-7.8,12.8-9.4c3.5-1,7.1-1.3,10.7-1.1
			c2.9,0.2,5.6,0.7,8.3,1.8c7.7,3.1,12.3,8.8,13.8,16.9c0.3,1.4,0.4,2.9,0.4,4.3c0,4,0,8,0,12c0,2.3-0.3,4.5-1,6.7
			c-2.2,7.1-6.9,11.9-13.9,14.5c-3.8,1.4-7.8,1.8-11.8,1.6c-2.9-0.2-5.8-0.7-8.5-1.8c-7.9-3.3-12.6-9.2-13.9-17.7
			c-0.2-1.1-0.2-2.3-0.2-3.5C174.6,82.6,174.6,80.6,174.6,78.6z M214.5,78.6c0-2,0-4.1,0-6.1c0-1.4-0.1-2.7-0.5-4
			c-1.3-4.9-4.3-8.2-9.2-9.8c-3.7-1.2-7.5-1.1-11.2,0c-4.3,1.4-7.2,4.3-8.7,8.6c-0.6,1.8-0.8,3.7-0.8,5.5c0,3.8,0,7.6,0,11.4
			c0,1.4,0.1,2.7,0.4,4c1.2,5.2,4.3,8.7,9.4,10.3c3.7,1.1,7.4,1.1,11.1-0.1c3.9-1.2,6.6-3.8,8.3-7.5c0.8-1.9,1.2-4,1.2-6.1
			C214.5,82.8,214.5,80.7,214.5,78.6z"/>
		<path class="st1" d="M246.1,51.6c1-0.1,6.4-0.2,8.6-0.1c0.2,0,0.4,0.1,0.6,0.1c0.2,0.5,0.1,1,0.1,1.5c0,7.8,0,15.7,0,23.5
			c0,0.4,0,0.9,0,1.3c0.4,0.1,0.6-0.2,0.7-0.4c3.5-3.6,7-7.2,10.5-10.9c4.6-4.7,9.2-9.5,13.8-14.2c0.1-0.1,0.2-0.2,0.3-0.3
			c0.3-0.4,0.7-0.5,1.3-0.5c3.2,0,6.4,0,9.6,0c0.2,0,0.4,0,0.5,0c0.2,0.4-0.1,0.5-0.2,0.6c-1.5,1.5-3,3.1-4.5,4.6
			c-6.1,6.1-12.1,12.3-18.2,18.4c-0.2,0.2-0.4,0.4-0.5,0.6c0,0.1,0.1,0.2,0.1,0.3c2.7,2.8,5.1,5.8,7.5,8.9
			c5.3,6.6,10.5,13.3,15.8,20c0.2,0.3,0.4,0.6,0.6,0.9c-0.3,0.4-0.7,0.2-1.1,0.2c-2.5,0-5,0-7.6,0c-0.6,0-1.1,0-1.7,0
			c-0.7,0.1-1.1-0.2-1.5-0.7c-1.7-2.2-3.4-4.3-5.1-6.5c-4.1-5.2-8.3-10.4-12.4-15.6c-0.3-0.3-0.6-0.7-0.9-1.1
			c-0.2,0.1-0.4,0.3-0.6,0.4c-2,1.9-3.9,3.8-5.8,5.7c-0.5,0.5-0.7,0.9-0.7,1.6c0,4.9,0,9.8,0,14.6c0,0.4,0,0.9,0,1.4
			c-0.3,0.1-0.5,0.2-0.7,0.2c-2.7,0-5.4,0-8,0c-0.2,0-0.4-0.1-0.6-0.1c0-0.2-0.1-0.3-0.1-0.4C246,87.8,246,51.8,246.1,51.6z"/>
	</g>
</g>
</svg>
